<?xml version="1.0" encoding="UTF-8" standalone="no"?>
<svg
   width="260"
   height="80"
   viewBox="0 0 260 80"
   fill="none"
   version="1.1"
   id="svg32"
   xmlns="http://www.w3.org/2000/svg"
   xmlns:svg="http://www.w3.org/2000/svg">
  <defs
     id="defs32" />
  <!-- Inactive grid dots -->
  <g
     opacity="0.3"
     id="g20">
    <circle
       cx="8"
       cy="8"
       r="2.5"
       fill="#334155"
       id="circle1" />
    <circle
       cx="24"
       cy="8"
       r="2.5"
       fill="#334155"
       id="circle2" />
    <circle
       cx="40"
       cy="8"
       r="2.5"
       fill="#334155"
       id="circle3" />
    <circle
       cx="56"
       cy="8"
       r="2.5"
       fill="#334155"
       id="circle4" />
    <circle
       cx="8"
       cy="24"
       r="2.5"
       fill="#334155"
       id="circle5" />
    <circle
       cx="24"
       cy="24"
       r="2.5"
       fill="#334155"
       id="circle6" />
    <circle
       cx="40"
       cy="24"
       r="2.5"
       fill="#334155"
       id="circle7" />
    <circle
       cx="56"
       cy="24"
       r="2.5"
       fill="#334155"
       id="circle8" />
    <circle
       cx="8"
       cy="40"
       r="2.5"
       fill="#334155"
       id="circle9" />
    <circle
       cx="24"
       cy="40"
       r="2.5"
       fill="#334155"
       id="circle10" />
    <circle
       cx="40"
       cy="40"
       r="2.5"
       fill="#334155"
       id="circle11" />
    <circle
       cx="56"
       cy="40"
       r="2.5"
       fill="#334155"
       id="circle12" />
    <circle
       cx="8"
       cy="56"
       r="2.5"
       fill="#334155"
       id="circle13" />
    <circle
       cx="24"
       cy="56"
       r="2.5"
       fill="#334155"
       id="circle14" />
    <circle
       cx="40"
       cy="56"
       r="2.5"
       fill="#334155"
       id="circle15" />
    <circle
       cx="56"
       cy="56"
       r="2.5"
       fill="#334155"
       id="circle16" />
    <circle
       cx="8"
       cy="72"
       r="2.5"
       fill="#334155"
       id="circle17" />
    <circle
       cx="24"
       cy="72"
       r="2.5"
       fill="#334155"
       id="circle18" />
    <circle
       cx="40"
       cy="72"
       r="2.5"
       fill="#334155"
       id="circle19" />
    <circle
       cx="56"
       cy="72"
       r="2.5"
       fill="#334155"
       id="circle20" />
  </g>
  <!-- Connection lines -->
  <line
     x1="8"
     y1="8"
     x2="56"
     y2="8"
     stroke="#f1f5f9"
     stroke-width="1.2"
     opacity="0.15"
     id="line20" />
  <line
     x1="8"
     y1="8"
     x2="8"
     y2="72"
     stroke="#94a3b8"
     stroke-width="1.2"
     opacity="0.12"
     id="line21" />
  <line
     x1="8"
     y1="40"
     x2="40"
     y2="40"
     stroke="#10b981"
     stroke-width="1.2"
     opacity="0.2"
     id="line22" />
  <!-- Active nodes — F shape -->
  <circle
     cx="8"
     cy="8"
     r="4.5"
     fill="#f1f5f9"
     id="circle22" />
  <circle
     cx="24"
     cy="8"
     r="4.5"
     fill="#e2e8f0"
     id="circle23" />
  <circle
     cx="40"
     cy="8"
     r="4.5"
     fill="#cbd5e1"
     id="circle24" />
  <circle
     cx="56"
     cy="8"
     r="4.5"
     fill="#94a3b8"
     id="circle25" />
  <circle
     cx="8"
     cy="24"
     r="4"
     fill="#94a3b8"
     id="circle26" />
  <circle
     cx="8"
     cy="40"
     r="5"
     fill="#10b981"
     id="circle27" />
  <circle
     cx="24"
     cy="40"
     r="4.5"
     fill="#34d399"
     id="circle28" />
  <circle
     cx="40"
     cy="40"
     r="4"
     fill="#6ee7b7"
     opacity="0.7"
     id="circle29" />
  <circle
     cx="8"
     cy="56"
     r="4"
     fill="#64748b"
     id="circle30" />
  <circle
     cx="8"
     cy="72"
     r="4.5"
     fill="#94a3b8"
     id="circle31" />
  <!-- Wordmark -->
  <path
     d="m 93.050781,33.40332 q -1.993164,0.914063 -3.922851,0.914063 -3.541993,0 -3.541993,-3.745117 v -8.086914 h -2.539062 v -1.713868 h 2.539062 V 17.15332 h 1.929688 v 3.618164 h 4.494141 v 1.713868 h -4.494141 v 7.566406 q 0,1.206054 0.533203,1.878906 0.533203,0.660156 1.447266,0.660156 1.625,0 3.211914,-0.723633 z m 17.369139,-5.954101 h -9.07715 q 0,2.24707 1.29493,3.707031 1.30761,1.459961 3.19921,1.459961 1.80274,0 3.71973,-0.647461 l 0.34277,1.586914 q -1.75195,0.787109 -4.08789,0.787109 -2.94531,0 -4.74804,-1.891601 -1.802738,-1.891602 -1.802738,-5.103516 0,-3.148437 1.612308,-5.014648 1.625,-1.878906 4.18945,-1.878906 2.28516,0 3.82129,1.739257 1.53613,1.739258 1.53613,4.633789 z m -2.1582,-1.612305 q 0,-1.548828 -0.96484,-2.602539 -0.96485,-1.066406 -2.15821,-1.066406 -1.53613,0 -2.55176,1.015625 -1.00293,1.015625 -1.11718,2.65332 z M 127.12891,34 h -1.98047 v -8.480469 q 0,-1.764648 -0.57129,-2.551758 -0.5586,-0.799804 -1.76465,-0.799804 -1.81543,0 -3.89746,2.259765 V 34 h -1.98047 V 20.771484 h 1.98047 v 1.942383 q 2.13281,-2.259765 4.49414,-2.259765 3.71973,0 3.71973,4.49414 z M 144.625,27.449219 h -9.07715 q 0,2.24707 1.29492,3.707031 1.30762,1.459961 3.19922,1.459961 1.80274,0 3.71973,-0.647461 l 0.34277,1.586914 q -1.75195,0.787109 -4.08789,0.787109 -2.94531,0 -4.74805,-1.891601 -1.80273,-1.891602 -1.80273,-5.103516 0,-3.148437 1.6123,-5.014648 1.625,-1.878906 4.18946,-1.878906 2.28515,0 3.82129,1.739257 1.53613,1.739258 1.53613,4.633789 z m -2.1582,-1.612305 q 0,-1.548828 -0.96485,-2.602539 -0.96484,-1.066406 -2.1582,-1.066406 -1.53613,0 -2.55176,1.015625 -1.00293,1.015625 -1.11719,2.65332 z m 18.99414,7.566406 q -1.99317,0.914063 -3.92285,0.914063 -3.542,0 -3.542,-3.745117 v -8.086914 h -2.53906 v -1.713868 h 2.53906 V 17.15332 h 1.92969 v 3.618164 h 4.49414 v 1.713868 h -4.49414 v 7.566406 q 0,1.206054 0.5332,1.878906 0.53321,0.660156 1.44727,0.660156 1.625,0 3.21191,-0.723633 z"
     id="text31"
     style="font-weight:600;font-size:26px;font-family:'JetBrains Mono', monospace;letter-spacing:1.5;fill:#f1f5f9"
     aria-label="tenet" />
  <path
     d="m 88.533203,46.42041 -0.340332,1.054199 q -0.921387,-0.265625 -1.651855,-0.265625 -0.697266,0 -0.962891,0.398438 -0.257324,0.390137 -0.257324,1.585449 v 0.157715 h 2.905273 v 1.120605 H 85.320801 V 58 h -1.294922 v -7.528809 h -2.174805 v -1.120605 h 2.174805 v -0.290527 q 0,-1.651856 0.564453,-2.315918 0.564453,-0.664063 1.950684,-0.664063 0.896484,0 1.992187,0.340332 z m 10.765137,2.722656 q 1.78467,0 2.83887,1.245118 1.0542,1.245117 1.0542,3.278808 0,2.050293 -1.0542,3.303711 -1.0542,1.253418 -2.83887,1.253418 -1.792969,0 -2.847168,-1.245117 -1.045899,-1.253418 -1.045899,-3.312012 0,-2.041992 1.0542,-3.278808 1.054199,-1.245118 2.838867,-1.245118 z m 0,7.952149 q 1.17871,0 1.85937,-0.996094 0.68067,-0.996094 0.68067,-2.415527 0,-1.494141 -0.67236,-2.457032 -0.67237,-0.96289 -1.86768,-0.96289 -1.203613,0 -1.867676,0.95459 -0.664062,0.946289 -0.664062,2.465332 0,1.444336 0.672363,2.432129 0.672363,0.979492 1.859375,0.979492 z M 116.22266,58 h -3.53614 V 47.408203 h -2.25781 v -1.120605 h 3.55274 v 10.591797 h 2.24121 z m 12.04345,-11.919922 q 0.36524,0 0.62256,0.265625 0.25733,0.257324 0.25733,0.622559 0,0.381836 -0.25733,0.63916 -0.24902,0.257324 -0.62256,0.257324 -0.34033,0 -0.60595,-0.265625 -0.25733,-0.273926 -0.25733,-0.630859 0,-0.356934 0.25733,-0.622559 0.26562,-0.265625 0.60595,-0.265625 z M 128.89697,58 h -1.29492 v -7.528809 h -2.54834 v -1.120605 h 3.84326 z m 13.00635,-8.856934 q 1.78467,0 2.83887,1.245118 1.0542,1.245117 1.0542,3.278808 0,2.050293 -1.0542,3.303711 -1.0542,1.253418 -2.83887,1.253418 -1.79297,0 -2.84717,-1.245117 -1.0459,-1.253418 -1.0459,-3.312012 0,-2.041992 1.0542,-3.278808 1.0542,-1.245118 2.83887,-1.245118 z m 0,7.952149 q 1.17871,0 1.85938,-0.996094 0.68066,-0.996094 0.68066,-2.415527 0,-1.494141 -0.67236,-2.457032 -0.67237,-0.96289 -1.86768,-0.96289 -1.20361,0 -1.86768,0.95459 -0.66406,0.946289 -0.66406,2.465332 0,1.444336 0.67237,2.432129 0.67236,0.979492 1.85937,0.979492 z"
     id="text32"
     style="font-size:17px;font-family:'JetBrains Mono', monospace;letter-spacing:4;fill:#64748b"
     aria-label="folio" />
</svg>
