<svg width="64" height="80" viewBox="0 0 64 80" fill="none" xmlns="http://www.w3.org/2000/svg">
  <g opacity="0.35">
    <circle cx="8" cy="8" r="2.5" fill="#cbd5e1"/><circle cx="24" cy="8" r="2.5" fill="#cbd5e1"/><circle cx="40" cy="8" r="2.5" fill="#cbd5e1"/><circle cx="56" cy="8" r="2.5" fill="#cbd5e1"/>
    <circle cx="8" cy="24" r="2.5" fill="#cbd5e1"/><circle cx="24" cy="24" r="2.5" fill="#cbd5e1"/><circle cx="40" cy="24" r="2.5" fill="#cbd5e1"/><circle cx="56" cy="24" r="2.5" fill="#cbd5e1"/>
    <circle cx="8" cy="40" r="2.5" fill="#cbd5e1"/><circle cx="24" cy="40" r="2.5" fill="#cbd5e1"/><circle cx="40" cy="40" r="2.5" fill="#cbd5e1"/><circle cx="56" cy="40" r="2.5" fill="#cbd5e1"/>
    <circle cx="8" cy="56" r="2.5" fill="#cbd5e1"/><circle cx="24" cy="56" r="2.5" fill="#cbd5e1"/><circle cx="40" cy="56" r="2.5" fill="#cbd5e1"/><circle cx="56" cy="56" r="2.5" fill="#cbd5e1"/>
    <circle cx="8" cy="72" r="2.5" fill="#cbd5e1"/><circle cx="24" cy="72" r="2.5" fill="#cbd5e1"/><circle cx="40" cy="72" r="2.5" fill="#cbd5e1"/><circle cx="56" cy="72" r="2.5" fill="#cbd5e1"/>
  </g>
  <circle cx="8" cy="8" r="4.5" fill="#0f172a"/>
  <circle cx="24" cy="8" r="4.5" fill="#1e293b"/>
  <circle cx="40" cy="8" r="4.5" fill="#334155"/>
  <circle cx="56" cy="8" r="4.5" fill="#475569"/>
  <circle cx="8" cy="24" r="4" fill="#64748b"/>
  <circle cx="8" cy="40" r="5" fill="#059669"/>
  <circle cx="24" cy="40" r="4.5" fill="#10b981"/>
  <circle cx="40" cy="40" r="4" fill="#34d399" opacity="0.8"/>
  <circle cx="8" cy="56" r="4" fill="#64748b"/>
  <circle cx="8" cy="72" r="4.5" fill="#475569"/>
</svg>
