<?xml version="1.0" encoding="UTF-8" standalone="no"?>
<svg
   width="280"
   height="48"
   viewBox="0 0 280 48"
   fill="none"
   version="1.1"
   id="svg19"
   xmlns="http://www.w3.org/2000/svg"
   xmlns:svg="http://www.w3.org/2000/svg">
  <defs
     id="defs19" />
  <!-- Compact icon -->
  <g
     id="g18">
    <g
       opacity="0.3"
       id="g9">
      <circle
         cx="6"
         cy="6"
         r="2"
         fill="#334155"
         id="circle1" />
      <circle
         cx="18"
         cy="6"
         r="2"
         fill="#334155"
         id="circle2" />
      <circle
         cx="30"
         cy="6"
         r="2"
         fill="#334155"
         id="circle3" />
      <circle
         cx="42"
         cy="6"
         r="2"
         fill="#334155"
         id="circle4" />
      <circle
         cx="6"
         cy="18"
         r="2"
         fill="#334155"
         id="circle5" />
      <circle
         cx="6"
         cy="30"
         r="2"
         fill="#334155"
         id="circle6" />
      <circle
         cx="18"
         cy="30"
         r="2"
         fill="#334155"
         id="circle7" />
      <circle
         cx="30"
         cy="30"
         r="2"
         fill="#334155"
         id="circle8" />
      <circle
         cx="6"
         cy="42"
         r="2"
         fill="#334155"
         id="circle9" />
    </g>
    <circle
       cx="6"
       cy="6"
       r="3.5"
       fill="#f1f5f9"
       id="circle10" />
    <circle
       cx="18"
       cy="6"
       r="3.5"
       fill="#e2e8f0"
       id="circle11" />
    <circle
       cx="30"
       cy="6"
       r="3.5"
       fill="#cbd5e1"
       id="circle12" />
    <circle
       cx="42"
       cy="6"
       r="3.5"
       fill="#94a3b8"
       id="circle13" />
    <circle
       cx="6"
       cy="18"
       r="3"
       fill="#94a3b8"
       id="circle14" />
    <circle
       cx="6"
       cy="30"
       r="4"
       fill="#10b981"
       id="circle15" />
    <circle
       cx="18"
       cy="30"
       r="3.5"
       fill="#34d399"
       id="circle16" />
    <circle
       cx="30"
       cy="30"
       r="3"
       fill="#6ee7b7"
       opacity="0.7"
       id="circle17" />
    <circle
       cx="6"
       cy="42"
       r="3.5"
       fill="#94a3b8"
       id="circle18" />
  </g>
  <!-- Compact wordmark — one continuous string, color shift at "folio" -->
  <g
     id="text19"
     style="font-weight:500;font-size:24px;font-family:'JetBrains Mono', monospace;letter-spacing:0.5"
     aria-label="tenetfolio">
    <path
       style="fill:#f1f5f9"
       d="m 74.046875,29.449219 q -1.839844,0.84375 -3.621094,0.84375 -3.269531,0 -3.269531,-3.457032 V 19.371094 H 64.8125 v -1.582032 h 2.34375 v -3.339843 h 1.78125 v 3.339843 h 4.148437 v 1.582032 H 68.9375 v 6.984375 q 0,1.113281 0.492187,1.734375 0.492188,0.609375 1.335938,0.609375 1.5,0 2.964844,-0.667969 z m 15.148437,-5.496094 h -8.378906 q 0,2.074219 1.195313,3.421875 1.207031,1.347656 2.953125,1.347656 1.664062,0 3.433593,-0.597656 l 0.316407,1.464844 q -1.617188,0.726562 -3.773438,0.726562 -2.71875,0 -4.382812,-1.746094 -1.664063,-1.746093 -1.664063,-4.710937 0,-2.90625 1.488281,-4.628906 1.5,-1.734375 3.867188,-1.734375 2.109375,0 3.527344,1.605468 1.417968,1.605469 1.417968,4.277344 z m -1.992187,-1.488281 q 0,-1.429688 -0.890625,-2.402344 -0.890625,-0.984375 -1.992188,-0.984375 -1.417968,0 -2.355468,0.9375 -0.925782,0.9375 -1.03125,2.449219 z M 103.73438,30 h -1.82813 v -7.828125 q 0,-1.628906 -0.52734,-2.355469 -0.51563,-0.738281 -1.62891,-0.738281 -1.675781,0 -3.597656,2.085937 V 30 H 94.324219 V 17.789062 h 1.828125 v 1.792969 q 1.96875,-2.085937 4.148436,-2.085937 3.4336,0 3.4336,4.148437 z M 119,23.953125 h -8.37891 q 0,2.074219 1.19532,3.421875 1.20703,1.347656 2.95312,1.347656 1.66406,0 3.4336,-0.597656 l 0.3164,1.464844 q -1.61719,0.726562 -3.77344,0.726562 -2.71875,0 -4.38281,-1.746094 -1.66406,-1.746093 -1.66406,-4.710937 0,-2.90625 1.48828,-4.628906 1.5,-1.734375 3.86719,-1.734375 2.10937,0 3.52734,1.605468 Q 119,20.707031 119,23.378906 Z m -1.99219,-1.488281 q 0,-1.429688 -0.89062,-2.402344 -0.89063,-0.984375 -1.99219,-0.984375 -1.41797,0 -2.35547,0.9375 -0.92578,0.9375 -1.03125,2.449219 z m 16.64844,6.984375 q -1.83984,0.84375 -3.62109,0.84375 -3.26953,0 -3.26953,-3.457032 v -7.464843 h -2.34375 v -1.582032 h 2.34375 v -3.339843 h 1.78124 v 3.339843 h 4.14844 v 1.582032 h -4.14844 v 6.984375 q 0,1.113281 0.49219,1.734375 0.49219,0.609375 1.33594,0.609375 1.5,0 2.96484,-0.667969 z"
       id="path19" />
    <path
       style="fill:#10b981"
       d="m 148.55859,13.652344 -0.48047,1.488281 q -1.30078,-0.375 -2.33203,-0.375 -0.98437,0 -1.35937,0.5625 -0.36328,0.550781 -0.36328,2.238281 v 0.222656 h 4.10156 v 1.582032 h -4.10156 V 30 h -1.82813 V 19.371094 H 139.125 v -1.582032 h 3.07031 v -0.410156 q 0,-2.332031 0.79688,-3.269531 0.79687,-0.9375 2.7539,-0.9375 1.26563,0 2.8125,0.480469 z m 10.05078,3.84375 q 2.51954,0 4.00782,1.757812 1.48828,1.757813 1.48828,4.628906 0,2.894532 -1.48828,4.664063 -1.48828,1.769531 -4.00782,1.769531 -2.53125,0 -4.01953,-1.757812 -1.47656,-1.769532 -1.47656,-4.675782 0,-2.882812 1.48828,-4.628906 1.48828,-1.757812 4.00781,-1.757812 z m 0,11.226562 q 1.66407,0 2.625,-1.40625 0.96094,-1.40625 0.96094,-3.410156 0,-2.109375 -0.94922,-3.46875 -0.94922,-1.359375 -2.63672,-1.359375 -1.69921,0 -2.63671,1.347656 -0.9375,1.335938 -0.9375,3.480469 0,2.039062 0.94921,3.433594 0.94922,1.382812 2.625,1.382812 z M 177.35547,30 h -4.99219 V 15.046875 h -3.1875 v -1.582031 h 5.01563 v 14.953125 h 3.16406 z m 11.85547,-16.828125 q 0.51562,0 0.8789,0.375 0.36328,0.363281 0.36328,0.878906 0,0.539063 -0.36328,0.902344 -0.35156,0.363281 -0.8789,0.363281 -0.48047,0 -0.85547,-0.375 -0.36328,-0.386718 -0.36328,-0.890625 0,-0.503906 0.36328,-0.878906 0.375,-0.375 0.85547,-0.375 z M 190.10156,30 h -1.82812 V 19.371094 h -3.59766 v -1.582032 h 5.42578 z m 13.21485,-12.503906 q 2.51953,0 4.00781,1.757812 1.48828,1.757813 1.48828,4.628906 0,2.894532 -1.48828,4.664063 -1.48828,1.769531 -4.00781,1.769531 -2.53125,0 -4.01954,-1.757812 -1.47656,-1.769532 -1.47656,-4.675782 0,-2.882812 1.48828,-4.628906 1.48828,-1.757812 4.00782,-1.757812 z m 0,11.226562 q 1.66406,0 2.625,-1.40625 0.96093,-1.40625 0.96093,-3.410156 0,-2.109375 -0.94922,-3.46875 -0.94921,-1.359375 -2.63671,-1.359375 -1.69922,0 -2.63672,1.347656 -0.9375,1.335938 -0.9375,3.480469 0,2.039062 0.94922,3.433594 0.94921,1.382812 2.625,1.382812 z"
       id="path20" />
  </g>
</svg>
